<svg xmlns="http://www.w3.org/2000/svg" viewBox="0 0 178.12 101.92"><defs><style>.cls-1{fill:#fff;}.cls-1,.cls-2,.cls-3{fill-rule:evenodd;}.cls-2{fill:#005ca1;}.cls-3{fill:#e52637;}.cls-4{fill:none;stroke:#fff;stroke-miterlimit:2.61;stroke-width:2.65px;}</style></defs><title>aflLogo</title><g id="Layer_2" data-name="Layer 2"><g id="Layer_1-2" data-name="Layer 1"><path class="cls-1" d="M43.76,9.15a148.6,148.6,0,0,1,46.11-7,162.1,162.1,0,0,1,17.85,1C146.84,7.94,176.15,27.6,176.15,51c0,27.12-39,49-87.09,49S2,78.08,2,51C2,33.31,18.7,17.77,43.76,9.15Z"/><path class="cls-2" d="M3,52.28c0-27,38.83-48.82,86.92-48.82,37.77,0,69.93,13.49,82,32.33A30,30,0,0,1,176.15,51c0,27.12-39,49-87.09,49-35.25,0-65.62-11.75-79.32-28.7C5.37,65.41,3,59,3,52.28Z"/><path class="cls-3" d="M97.18,79.23H57.54L56.08,72H40.81l-2.12,5.75c11.86,9.53,30.39,15.62,51.18,15.62,19.66,0,37.21-5.43,49.23-14H119.61L117.17,46h-5L112.94,63H97.18V79.23Z"/><path class="cls-3" d="M39.51,26.14H64.85l8.78,27.12.81-27.12h65.8c-7.47-5.75-17.39-10.19-28.92-12.82v4.44h-6.66V12.17c-1.79-.33-3.58-.49-5.36-.66v10H92.63V11.19H87.27V21.54H80.61v-10a49.08,49.08,0,0,0-5.36.66v5.59H68.43V13.32C57.05,16,47.14,20.39,39.51,26.14Z"/><path class="cls-3" d="M139.26,34.36l3.25,25.15h11.7a26.78,26.78,0,0,0,1-7.23c0-7.73-3.41-15-9.26-21l-6.67,3.12Z"/><path class="cls-3" d="M38.69,33.7l-5-2.3C28,37.48,24.72,44.72,24.72,52.28a30,30,0,0,0,.16,3.78L38.69,33.7Z"/><path class="cls-1" d="M162.82,73.48H122.69l-3.57-44.71h24.37L131,34.2h5l3.57,28.1h20.47l2.76,11.18Zm-54.1-26.3.49,9.86H93V73.48H60.14l-1.62-7.07H38.86l-3.58,7.07H17.73L41.78,34.2H47.3L35.61,28.77H62.25L75.74,69.2h.49l1.29-40.43h38.35l.81,11H93v7.4Z"/><polygon class="cls-2" points="52.67 40.44 51.69 40.44 42.92 58.19 56.73 58.19 52.67 40.44 52.67 40.44"/><path class="cls-1" d="M89.87,6.75c-39.48,0-71.49,20.38-71.49,45.53a28.11,28.11,0,0,0,2.12,11l3.41-5.59a30.18,30.18,0,0,1-.49-5.42c0-19.73,20-36.33,47.44-41.75V15.3h2V10.2A96,96,0,0,1,82.89,8.89V19.08h2V8.89a49.73,49.73,0,0,1,5-.17c1.79,0,3.42,0,5.2.17V19.08h1.79V8.89A99.77,99.77,0,0,1,107.1,10.2v5.1h2V10.53c27.45,5.42,47.44,22,47.44,41.75a26.78,26.78,0,0,1-1,7.23h5a26.78,26.78,0,0,0,1-7.23c0-25.15-32-45.53-71.65-45.53Z"/><path class="cls-1" d="M89.87,95.83c-21.12,0-39.8-6.41-52-16.44H32.52c13,11.18,33.79,18.25,57.35,18.25s44.52-7.23,57.52-18.25H142c-12.19,10-31,16.44-52.16,16.44Z"/><path class="cls-4" d="M176.8,51c0,27.45-39.32,49.64-87.74,49.64S1.32,78.41,1.32,51,40.64,1.32,89.06,1.32,176.8,23.51,176.8,51Z"/></g></g></svg>